<svg xmlns="http://www.w3.org/2000/svg" width="512" height="408" viewBox="0 0 512 408" version="1.1">
	<path d="M 233 2.469 C 192.783 8.385, 158.390 27.754, 130.520 60.183 C 101.512 93.936, 80.576 139.129, 71.075 188.500 L 69.343 197.500 54.422 197.596 C 32.311 197.739, 18.689 200.859, 9.348 207.920 C 2.581 213.035, 0.498 217.060, 0.509 225 C 0.517 230.193, 1.142 232.807, 3.620 238 C 12.824 257.287, 40.353 280.256, 62.510 287.134 L 69.861 289.416 71.474 295.834 C 73.925 305.594, 79.160 318.022, 84.602 327.005 C 90.015 335.940, 103.198 350.691, 110.315 355.776 L 114.900 359.052 115.424 355.776 C 122.241 313.147, 130.141 285.101, 143.644 255.596 C 146.334 249.717, 148.393 243.591, 148.710 240.521 C 149.444 233.413, 146.964 225.664, 141.984 219.500 C 128.389 202.674, 122.977 193.206, 119.404 180 C 116.713 170.053, 116.887 149.831, 119.749 139.843 C 124.137 124.529, 130.549 113.451, 141.174 102.826 C 151.670 92.330, 163.689 85.542, 179.500 81.180 C 188.785 78.619, 209.249 78.936, 219.291 81.797 C 227.773 84.213, 237.966 89.014, 245.626 94.200 C 249.677 96.943, 251.429 97.500, 256 97.500 C 260.571 97.500, 262.323 96.943, 266.374 94.200 C 279.697 85.180, 293.686 80.305, 309.044 79.329 C 356.999 76.283, 397.538 116.555, 394.681 164.403 C 393.569 183.017, 386.661 200.006, 374.512 214 C 366.956 222.703, 364.272 227.835, 363.402 235.239 C 362.704 241.177, 364.380 246.765, 372.029 264 C 377.422 276.152, 384.968 298.997, 388.875 315 C 391.470 325.632, 397 354.979, 397 358.123 C 397 359.995, 406.221 352.528, 413.641 344.649 C 427.116 330.339, 436.373 313.288, 440.891 294.454 L 442.097 289.429 449.469 287.141 C 466.016 282.004, 487.445 266.692, 500.048 251 C 505.297 244.463, 510.998 233.954, 510.999 230.809 C 511 229.879, 511.450 228.840, 512 228.500 C 512.550 228.160, 513 226.082, 513 223.882 C 513 221.682, 512.605 220.126, 512.122 220.425 C 511.639 220.723, 510.959 219.543, 510.610 217.801 C 509.814 213.822, 502.982 207.152, 496.655 204.178 C 486.736 199.515, 467.873 196.630, 451.098 197.210 L 442.695 197.500 440.944 188.500 C 424.414 103.544, 376.611 36.226, 315.651 12.054 C 305.368 7.977, 290.925 4.251, 278.500 2.470 C 266.488 0.748, 244.704 0.748, 233 2.469 M 180.500 123.890 C 173.658 127.048, 169.002 134.063, 168.999 141.218 C 168.997 144.351, 168.735 144.577, 163.249 146.189 C 143.295 152.054, 140.242 173.751, 158.010 183.412 C 168.310 189.012, 183.901 187.828, 192.429 180.798 C 198.926 175.443, 201.693 166.583, 199.045 159.617 C 197.528 155.628, 191.435 149.500, 186.993 147.497 C 183.204 145.788, 182.962 145.441, 183.574 142.579 C 184.479 138.336, 185.779 137, 189 137 C 192.272 137, 193.489 138.282, 195.213 143.544 C 196.876 148.622, 200.703 150.731, 204.741 148.795 C 209.089 146.712, 210.221 143.289, 208.614 137.092 C 205.455 124.915, 191.985 118.589, 180.500 123.890 M 314 123.954 C 308.500 126.887, 304.867 131.384, 303.386 137.092 C 301.779 143.289, 302.911 146.712, 307.259 148.795 C 311.297 150.731, 315.124 148.622, 316.787 143.544 C 318.511 138.282, 319.728 137, 323 137 C 326.221 137, 327.521 138.336, 328.426 142.579 C 329.038 145.441, 328.796 145.788, 325.007 147.497 C 320.565 149.500, 314.472 155.628, 312.955 159.617 C 311.416 163.665, 311.850 169.786, 313.971 173.943 C 318.434 182.691, 328.894 187.597, 341.351 186.783 C 349.584 186.245, 355.148 183.808, 360.336 178.466 C 370.669 167.826, 364.733 150.886, 349.057 146.279 C 343.152 144.544, 343.002 144.414, 342.979 141 C 342.951 136.695, 340.074 130.245, 336.868 127.298 C 331.097 121.992, 320.568 120.453, 314 123.954 M 0.272 225 C 0.272 227.475, 0.467 228.488, 0.706 227.250 C 0.944 226.012, 0.944 223.988, 0.706 222.750 C 0.467 221.512, 0.272 222.525, 0.272 225 M 202.361 238.055 C 196.108 238.906, 187.892 243.220, 183.929 247.733 C 182.316 249.571, 179.781 253.420, 178.296 256.287 C 176.001 260.718, 175.589 262.776, 175.548 270 C 175.506 277.378, 175.876 279.266, 178.351 284.307 C 180.238 288.149, 182.840 291.408, 186.042 293.939 C 191.099 297.936, 199.754 302.579, 200.590 301.743 C 201.716 300.618, 210.703 278.435, 210.311 277.750 C 210.075 277.337, 208.628 277, 207.096 277 C 203.420 277, 200.600 273.745, 200.600 269.500 C 200.600 260.440, 212.754 258.889, 215.405 267.611 C 215.826 268.995, 213.107 277.930, 207.502 293.583 C 202.802 306.707, 199.158 317.969, 199.403 318.609 C 199.802 319.648, 220.970 327.363, 221.625 326.708 C 221.772 326.561, 225.802 315.654, 230.579 302.470 C 237.508 283.352, 239.365 277.059, 239.756 271.379 C 240.384 262.267, 238.315 255.775, 232.780 249.487 C 224.476 240.053, 214.693 236.377, 202.361 238.055 M 280.434 240.311 C 280.157 241.032, 280.059 246.770, 280.215 253.061 L 280.500 264.500 292.750 264.781 C 299.488 264.935, 305 265.315, 305 265.626 C 305 265.936, 300.950 278.905, 296 294.446 C 291.050 309.986, 287 323.219, 287 323.851 C 287 324.657, 290.868 325, 299.972 325 L 312.944 325 314.637 319.250 C 330.029 266.983, 337.613 240.360, 337.285 239.750 C 337.063 239.338, 324.294 239, 308.910 239 C 286.758 239, 280.833 239.273, 280.434 240.311" stroke="none" fill="black" fill-rule="evenodd"/>
</svg>